<?xml version="1.0" encoding="UTF-8" standalone="no"?>
<!DOCTYPE svg PUBLIC "-//W3C//DTD SVG 1.1//EN"
 "http://www.w3.org/Graphics/SVG/1.1/DTD/svg11.dtd">
<!-- Generated by graphviz version 2.43.0 (0)
 -->
<!-- Title: PagePulse Pages: 1 -->
<svg width="639pt" height="608pt"
 viewBox="0.00 0.00 638.50 608.00" xmlns="http://www.w3.org/2000/svg" xmlns:xlink="http://www.w3.org/1999/xlink">
<g id="graph0" class="graph" transform="scale(1 1) rotate(0) translate(4 604)">
<title>PagePulse</title>
<polygon fill="white" stroke="transparent" points="-4,4 -4,-604 634.5,-604 634.5,4 -4,4"/>
<g id="clust2" class="cluster">
<title>cluster_legend</title>
<path fill="white" stroke="#d7dde5" d="M452.5,-342.5C452.5,-342.5 610.5,-342.5 610.5,-342.5 616.5,-342.5 622.5,-348.5 622.5,-354.5 622.5,-354.5 622.5,-580 622.5,-580 622.5,-586 616.5,-592 610.5,-592 610.5,-592 452.5,-592 452.5,-592 446.5,-592 440.5,-586 440.5,-580 440.5,-580 440.5,-354.5 440.5,-354.5 440.5,-348.5 446.5,-342.5 452.5,-342.5"/>
</g>
<!-- clients -->
<g id="node1" class="node">
<title>clients</title>
<path fill="#e8eefc" stroke="#6aa9ff" stroke-width="1.6" d="M311.5,-581C311.5,-581 263.5,-581 263.5,-581 257.5,-581 251.5,-575 251.5,-569 251.5,-569 251.5,-557 251.5,-557 251.5,-551 257.5,-545 263.5,-545 263.5,-545 311.5,-545 311.5,-545 317.5,-545 323.5,-551 323.5,-557 323.5,-557 323.5,-569 323.5,-569 323.5,-575 317.5,-581 311.5,-581"/>
<text text-anchor="middle" x="287.5" y="-559.9" font-family="Helvetica,sans-Serif" font-size="12.00" fill="#123a6b">Clients</text>
</g>
<!-- lb -->
<g id="node2" class="node">
<title>lb</title>
<path fill="#eef2f7" stroke="#8496ab" stroke-width="1.6" d="M399.5,-493C399.5,-493 175.5,-493 175.5,-493 169.5,-493 163.5,-487 163.5,-481 163.5,-481 163.5,-459 163.5,-459 163.5,-453 169.5,-447 175.5,-447 175.5,-447 399.5,-447 399.5,-447 405.5,-447 411.5,-453 411.5,-459 411.5,-459 411.5,-481 411.5,-481 411.5,-487 405.5,-493 399.5,-493"/>
<text text-anchor="middle" x="287.5" y="-473.4" font-family="Helvetica,sans-Serif" font-size="12.00" fill="#2a3543">Load balancer / API gateway</text>
<text text-anchor="middle" x="287.5" y="-460.4" font-family="Helvetica,sans-Serif" font-size="12.00" fill="#2a3543">TLS · coarse throttle · health routing</text>
</g>
<!-- clients&#45;&gt;lb -->
<g id="edge1" class="edge">
<title>clients&#45;&gt;lb</title>
<path fill="none" stroke="#6b7a8d" stroke-width="1.3" d="M287.5,-544.88C287.5,-532.66 287.5,-515.89 287.5,-501.41"/>
<polygon fill="#6b7a8d" stroke="#6b7a8d" stroke-width="1.3" points="290.3,-501.21 287.5,-493.21 284.7,-501.21 290.3,-501.21"/>
</g>
<!-- api -->
<g id="node3" class="node">
<title>api</title>
<path fill="#e7f9f1" stroke="#2bb583" stroke-width="1.6" d="M388.5,-398C388.5,-398 186.5,-398 186.5,-398 180.5,-398 174.5,-392 174.5,-386 174.5,-386 174.5,-351 174.5,-351 174.5,-345 180.5,-339 186.5,-339 186.5,-339 388.5,-339 388.5,-339 394.5,-339 400.5,-345 400.5,-351 400.5,-351 400.5,-386 400.5,-386 400.5,-392 394.5,-398 388.5,-398"/>
<text text-anchor="middle" x="287.5" y="-378.4" font-family="Helvetica,sans-Serif" font-size="12.00" fill="#06231a">API instances &#160;(STATELESS)</text>
<text text-anchor="middle" x="287.5" y="-365.4" font-family="Helvetica,sans-Serif" font-size="12.00" fill="#06231a">validate · SSRF check · rate&#45;limit</text>
<text text-anchor="middle" x="287.5" y="-352.4" font-family="Helvetica,sans-Serif" font-size="12.00" fill="#06231a">cache lookup · enqueue · serve</text>
</g>
<!-- lb&#45;&gt;api -->
<g id="edge2" class="edge">
<title>lb&#45;&gt;api</title>
<path fill="none" stroke="#6b7a8d" stroke-width="1.3" d="M287.5,-446.92C287.5,-435.06 287.5,-420.14 287.5,-406.56"/>
<polygon fill="#6b7a8d" stroke="#6b7a8d" stroke-width="1.3" points="290.3,-406.33 287.5,-398.33 284.7,-406.33 290.3,-406.33"/>
</g>
<!-- redis -->
<g id="node5" class="node">
<title>redis</title>
<path fill="#fdf3d8" stroke="#d89e1a" stroke-width="1.6" d="M273,-269C273,-269 12,-269 12,-269 6,-269 0,-263 0,-257 0,-257 0,-235 0,-235 0,-229 6,-223 12,-223 12,-223 273,-223 273,-223 279,-223 285,-229 285,-235 285,-235 285,-257 285,-257 285,-263 279,-269 273,-269"/>
<text text-anchor="middle" x="142.5" y="-249.4" font-family="Helvetica,sans-Serif" font-size="12.00" fill="#5a4300">Redis &#160;&#160;◆ STATE</text>
<text text-anchor="middle" x="142.5" y="-236.4" font-family="Helvetica,sans-Serif" font-size="12.00" fill="#5a4300">hot cache · rate&#45;limit counters · job queue</text>
</g>
<!-- api&#45;&gt;redis -->
<g id="edge3" class="edge">
<title>api&#45;&gt;redis</title>
<path fill="none" stroke="#6b7a8d" stroke-width="1.3" d="M253.14,-338.94C229.71,-319.48 198.86,-293.84 175.69,-274.58"/>
<polygon fill="#6b7a8d" stroke="#6b7a8d" stroke-width="1.3" points="177.32,-272.29 169.37,-269.33 173.74,-276.6 177.32,-272.29"/>
<text text-anchor="middle" x="275" y="-307" font-family="Helvetica,sans-Serif" font-size="10.00"> &#160;hot read/write</text>
<text text-anchor="middle" x="275" y="-296" font-family="Helvetica,sans-Serif" font-size="10.00"> &#160;+ enqueue on miss</text>
</g>
<!-- mongo -->
<g id="node6" class="node">
<title>mongo</title>
<path fill="#fdf3d8" stroke="#d89e1a" stroke-width="1.6" d="M532,-269C532,-269 333,-269 333,-269 327,-269 321,-263 321,-257 321,-257 321,-235 321,-235 321,-229 327,-223 333,-223 333,-223 532,-223 532,-223 538,-223 544,-229 544,-235 544,-235 544,-257 544,-257 544,-263 538,-269 532,-269"/>
<text text-anchor="middle" x="432.5" y="-249.4" font-family="Helvetica,sans-Serif" font-size="12.00" fill="#5a4300">MongoDB &#160;&#160;◆ STATE</text>
<text text-anchor="middle" x="432.5" y="-236.4" font-family="Helvetica,sans-Serif" font-size="12.00" fill="#5a4300">durable audit results · TTL index</text>
</g>
<!-- api&#45;&gt;mongo -->
<g id="edge4" class="edge">
<title>api&#45;&gt;mongo</title>
<path fill="none" stroke="#6b7a8d" stroke-width="1.3" d="M321.86,-338.94C345.29,-319.48 376.14,-293.84 399.31,-274.58"/>
<polygon fill="#6b7a8d" stroke="#6b7a8d" stroke-width="1.3" points="401.26,-276.6 405.63,-269.33 397.68,-272.29 401.26,-276.6"/>
<text text-anchor="middle" x="407.5" y="-301.5" font-family="Helvetica,sans-Serif" font-size="10.00"> &#160;durable read</text>
</g>
<!-- workers -->
<g id="node4" class="node">
<title>workers</title>
<path fill="#e7f9f1" stroke="#2bb583" stroke-width="1.6" d="M264.5,-164C264.5,-164 20.5,-164 20.5,-164 14.5,-164 8.5,-158 8.5,-152 8.5,-152 8.5,-117 8.5,-117 8.5,-111 14.5,-105 20.5,-105 20.5,-105 264.5,-105 264.5,-105 270.5,-105 276.5,-111 276.5,-117 276.5,-117 276.5,-152 276.5,-152 276.5,-158 270.5,-164 264.5,-164"/>
<text text-anchor="middle" x="142.5" y="-144.4" font-family="Helvetica,sans-Serif" font-size="12.00" fill="#06231a">Auditor worker pool &#160;(STATELESS)</text>
<text text-anchor="middle" x="142.5" y="-131.4" font-family="Helvetica,sans-Serif" font-size="12.00" fill="#06231a">bounded concurrency · timeouts</text>
<text text-anchor="middle" x="142.5" y="-118.4" font-family="Helvetica,sans-Serif" font-size="12.00" fill="#06231a">redirect + SSRF checks · circuit breaker</text>
</g>
<!-- workers&#45;&gt;redis -->
<g id="edge8" class="edge">
<title>workers&#45;&gt;redis</title>
<path fill="none" stroke="#6b7a8d" stroke-width="1.3" d="M206.92,-164.29C219.12,-173.93 226.01,-185.67 218.5,-199 214.41,-206.26 208.66,-212.5 202.14,-217.83"/>
<polygon fill="#6b7a8d" stroke="#6b7a8d" stroke-width="1.3" points="200.13,-215.83 195.4,-222.86 203.48,-220.32 200.13,-215.83"/>
<text text-anchor="middle" x="255.5" y="-191" font-family="Helvetica,sans-Serif" font-size="10.00"> &#160;warm cache</text>
</g>
<!-- workers&#45;&gt;mongo -->
<g id="edge7" class="edge">
<title>workers&#45;&gt;mongo</title>
<path fill="none" stroke="#6b7a8d" stroke-width="1.3" d="M230.61,-164.1C252.57,-171.57 275.99,-179.83 297.5,-188 323.14,-197.74 351.14,-209.39 374.95,-219.61"/>
<polygon fill="#6b7a8d" stroke="#6b7a8d" stroke-width="1.3" points="374.07,-222.28 382.53,-222.87 376.29,-217.14 374.07,-222.28"/>
<text text-anchor="middle" x="355.5" y="-191" font-family="Helvetica,sans-Serif" font-size="10.00"> &#160;write result</text>
</g>
<!-- targets -->
<g id="node7" class="node">
<title>targets</title>
<polygon fill="#f4f5f7" stroke="#aab6c4" stroke-width="1.6" points="256.5,-46 28.5,-46 28.5,0 256.5,0 256.5,-46"/>
<text text-anchor="middle" x="142.5" y="-26.4" font-family="Helvetica,sans-Serif" font-size="12.00" fill="#55616f">Target sites</text>
<text text-anchor="middle" x="142.5" y="-13.4" font-family="Helvetica,sans-Serif" font-size="12.00" fill="#55616f">(untrusted, uncontrolled latency)</text>
</g>
<!-- workers&#45;&gt;targets -->
<g id="edge6" class="edge">
<title>workers&#45;&gt;targets</title>
<path fill="none" stroke="#6b7a8d" stroke-width="1.3" d="M142.5,-104.73C142.5,-89.23 142.5,-70.1 142.5,-54.36"/>
<polygon fill="#6b7a8d" stroke="#6b7a8d" stroke-width="1.3" points="145.3,-54.01 142.5,-46.01 139.7,-54.01 145.3,-54.01"/>
<text text-anchor="middle" x="180" y="-73" font-family="Helvetica,sans-Serif" font-size="10.00"> &#160;outbound GET</text>
</g>
<!-- redis&#45;&gt;workers -->
<g id="edge5" class="edge">
<title>redis&#45;&gt;workers</title>
<path fill="none" stroke="#6b7a8d" stroke-width="1.3" d="M142.5,-222.84C142.5,-208.47 142.5,-189.4 142.5,-172.74"/>
<polygon fill="#6b7a8d" stroke="#6b7a8d" stroke-width="1.3" points="145.3,-172.28 142.5,-164.28 139.7,-172.28 145.3,-172.28"/>
<text text-anchor="middle" x="176" y="-191" font-family="Helvetica,sans-Serif" font-size="10.00"> &#160;dequeue job</text>
</g>
<!-- l1 -->
<g id="node8" class="node">
<title>l1</title>
<path fill="#e7f9f1" stroke="#2bb583" stroke-width="1.6" d="M582.5,-584C582.5,-584 480.5,-584 480.5,-584 474.5,-584 468.5,-578 468.5,-572 468.5,-572 468.5,-554 468.5,-554 468.5,-548 474.5,-542 480.5,-542 480.5,-542 582.5,-542 582.5,-542 588.5,-542 594.5,-548 594.5,-554 594.5,-554 594.5,-572 594.5,-572 594.5,-578 588.5,-584 582.5,-584"/>
<text text-anchor="middle" x="531.5" y="-566" font-family="Helvetica,sans-Serif" font-size="10.00" fill="#06231a">Stateless compute</text>
<text text-anchor="middle" x="531.5" y="-555" font-family="Helvetica,sans-Serif" font-size="10.00" fill="#06231a">(scale horizontally)</text>
</g>
<!-- l2 -->
<g id="node9" class="node">
<title>l2</title>
<path fill="#fdf3d8" stroke="#d89e1a" stroke-width="1.6" d="M603,-491C603,-491 460,-491 460,-491 454,-491 448,-485 448,-479 448,-479 448,-461 448,-461 448,-455 454,-449 460,-449 460,-449 603,-449 603,-449 609,-449 615,-455 615,-461 615,-461 615,-479 615,-479 615,-485 609,-491 603,-491"/>
<text text-anchor="middle" x="531.5" y="-473" font-family="Helvetica,sans-Serif" font-size="10.00" fill="#5a4300">◆ Stateful store</text>
<text text-anchor="middle" x="531.5" y="-462" font-family="Helvetica,sans-Serif" font-size="10.00" fill="#5a4300">(all shared state lives here)</text>
</g>
<!-- l1&#45;&gt;l2 -->
<!-- l3 -->
<g id="node10" class="node">
<title>l3</title>
<path fill="#f4f5f7" stroke="#aab6c4" stroke-width="1.6" d="M584,-386.5C584,-386.5 479,-386.5 479,-386.5 473,-386.5 467,-380.5 467,-374.5 467,-374.5 467,-362.5 467,-362.5 467,-356.5 473,-350.5 479,-350.5 479,-350.5 584,-350.5 584,-350.5 590,-350.5 596,-356.5 596,-362.5 596,-362.5 596,-374.5 596,-374.5 596,-380.5 590,-386.5 584,-386.5"/>
<text text-anchor="middle" x="531.5" y="-366" font-family="Helvetica,sans-Serif" font-size="10.00" fill="#55616f">External / untrusted</text>
</g>
<!-- l2&#45;&gt;l3 -->
</g>
</svg>
